<?xml version="1.0" standalone="no"?>
<!DOCTYPE svg PUBLIC "-//W3C//DTD SVG 20010904//EN"
 "http://www.w3.org/TR/2001/REC-SVG-20010904/DTD/svg10.dtd">
<svg version="1.0" xmlns="http://www.w3.org/2000/svg"
 width="267.000000pt" height="189.000000pt" viewBox="0 0 267.000000 189.000000"
 preserveAspectRatio="xMidYMid meet">

<g transform="translate(0.000000,189.000000) scale(0.100000,-0.100000)"
fill="#000000" stroke="none">
<path d="M0 1015 l0 -875 1335 0 1335 0 0 875 0 875 -1335 0 -1335 0 0 -875z
m511 676 c-15 -27 -13 -72 3 -93 24 -32 37 -20 16 15 -20 32 -26 67 -12 67 4
0 15 -21 26 -46 10 -25 41 -70 70 -101 46 -52 48 -55 18 -37 -18 10 -40 29
-48 41 -8 13 -21 23 -29 23 -19 0 -19 -16 0 -24 8 -3 15 -10 15 -16 0 -6 -4
-8 -10 -5 -5 3 -10 1 -10 -4 0 -6 4 -11 9 -11 5 0 16 -11 25 -25 16 -25 16
-25 -1 -14 -27 17 -74 89 -67 101 4 7 3 8 -4 4 -31 -19 -43 110 -14 149 20 27
30 9 13 -24z m-212 -96 c29 -30 48 -55 42 -55 -7 0 -9 -4 -6 -10 3 -5 13 -10
21 -10 9 0 12 5 8 12 -4 7 8 2 27 -10 19 -12 59 -33 89 -48 30 -14 71 -33 90
-42 19 -9 46 -19 60 -23 l25 -7 -25 -1 c-14 0 -34 5 -45 13 -11 7 -43 21 -71
30 -28 9 -72 30 -97 46 -25 15 -48 26 -50 23 -14 -13 -49 12 -67 47 -24 48
-38 58 -36 26 0 -13 4 -22 8 -20 4 3 5 -1 3 -8 -3 -8 9 -33 27 -57 31 -39 88
-74 197 -118 19 -7 8 -9 -49 -8 -58 1 -75 5 -86 20 -7 10 -11 22 -8 26 2 4 -6
13 -18 20 -19 9 -21 9 -10 -2 6 -7 12 -28 12 -45 0 -42 35 -70 98 -80 44 -7
45 -8 17 -14 -16 -4 -36 -2 -42 3 -7 5 -25 6 -40 3 -19 -5 -23 -4 -14 3 11 7
2 17 -36 45 -53 38 -92 87 -118 148 -24 59 -18 66 16 19 29 -38 75 -69 86 -57
3 3 -9 22 -26 43 -17 21 -42 71 -56 110 -32 91 -33 121 -2 71 12 -21 46 -62
76 -93z m1724 70 c-3 -16 -10 -36 -16 -42 -5 -7 -7 -19 -4 -26 3 -7 -1 -21 -9
-32 -12 -17 -14 -17 -14 -2 0 27 -17 20 -25 -10 -3 -16 -17 -44 -30 -65 -24
-36 -19 -52 14 -40 11 4 11 6 0 13 -11 7 -10 9 4 9 23 0 87 64 87 87 0 10 5
25 11 33 9 12 10 12 5 -3 -3 -10 -6 -30 -6 -43 0 -14 -11 -36 -24 -49 -41 -41
-14 -36 31 6 23 21 51 58 63 81 11 24 32 61 46 83 24 39 25 39 20 10 -2 -16
-8 -52 -11 -79 -4 -31 -10 -45 -15 -36 -5 8 -11 1 -20 -24 -6 -19 -16 -39 -22
-42 -6 -4 -8 2 -3 16 l7 23 -28 -21 c-16 -11 -39 -32 -52 -46 -12 -15 -26 -24
-31 -22 -9 6 -101 -72 -101 -85 0 -5 15 1 34 12 19 11 47 22 61 25 l27 5 -20
-35 c-14 -24 -17 -36 -9 -39 7 -2 -7 -6 -30 -8 -23 -2 -39 -1 -37 3 3 5 15 8
27 9 21 0 21 1 2 8 -20 8 -62 -3 -100 -26 -16 -10 -17 -14 -6 -22 9 -6 10 -11
2 -15 -6 -4 -11 -2 -11 4 0 7 -7 10 -15 6 -24 -9 -17 12 10 30 14 9 22 21 18
27 -3 6 -1 7 5 3 7 -4 12 -1 12 9 0 22 37 68 56 71 9 1 19 6 22 10 4 4 0 5 -9
2 -9 -4 -22 -3 -29 2 -16 10 -54 -33 -64 -73 -4 -15 -10 -25 -15 -23 -5 3 -11
-4 -14 -15 -3 -12 -10 -18 -16 -14 -7 4 -11 -8 -11 -34 0 -39 -3 -42 -40 -57
-22 -9 -40 -18 -40 -19 0 -15 14 -34 21 -29 5 3 9 -3 9 -13 1 -16 2 -16 12 2
30 55 55 85 72 85 23 0 45 -27 46 -56 0 -11 9 -30 21 -43 26 -28 22 -33 -19
-22 -22 7 -32 6 -35 -2 -3 -7 -11 -3 -22 11 -9 12 -21 20 -26 17 -5 -4 -9 -2
-9 4 0 18 21 23 38 8 23 -19 50 -28 57 -17 3 5 1 11 -5 15 -5 3 -10 15 -10 26
0 10 -4 19 -10 19 -5 0 -10 7 -10 15 0 18 -5 18 -31 5 -10 -6 -19 -19 -19 -30
0 -10 -6 -23 -12 -27 -7 -4 -13 -15 -13 -23 0 -21 -40 -21 -63 0 -17 16 -19
16 -41 -1 -20 -16 -21 -20 -7 -25 9 -3 16 -12 16 -20 0 -8 3 -14 6 -14 11 0
49 23 56 34 5 7 8 7 8 -2 0 -10 8 -12 30 -7 19 4 30 3 30 -4 0 -6 -10 -11 -22
-11 -17 0 -19 -3 -10 -12 19 -19 14 -33 -6 -15 -19 17 -37 23 -29 10 3 -5 -6
-16 -19 -26 -13 -10 -24 -15 -24 -11 0 4 8 13 18 20 15 12 15 13 1 14 -33 0
-30 -31 6 -73 19 -22 35 -46 35 -53 0 -7 4 -15 8 -18 5 -3 7 9 5 27 l-3 32 10
-29 c5 -17 16 -34 25 -38 8 -5 15 -16 15 -25 0 -11 -5 -9 -20 8 -23 29 -26 12
-5 -38 8 -19 15 -45 14 -57 0 -20 -1 -20 -8 -1 -5 11 -7 23 -5 27 3 4 0 9 -6
13 -5 3 -10 -2 -11 -12 -1 -18 -13 21 -28 91 -5 21 -18 48 -30 60 -21 20 -22
20 -15 1 6 -18 4 -17 -10 3 -10 12 -21 22 -27 22 -17 0 -9 -37 21 -91 16 -30
29 -63 29 -74 -1 -17 -2 -17 -6 -2 -2 9 -8 17 -11 17 -4 0 -18 10 -32 21 l-25
20 25 -6 c14 -4 20 -3 13 2 -16 12 -33 59 -33 94 0 19 -5 29 -14 29 -21 0 -29
17 -17 37 10 17 10 17 11 1 0 -22 13 -23 29 -4 10 12 8 19 -8 35 -12 12 -27
21 -35 21 -8 0 -21 3 -30 6 -13 5 -16 -1 -16 -29 0 -20 -4 -38 -9 -41 -5 -3
-8 8 -7 25 0 18 -5 34 -11 36 -9 3 -13 -7 -13 -33 0 -45 -9 -41 -13 7 -2 24
-8 35 -21 37 -15 3 -17 0 -11 -14 5 -11 8 -32 7 -49 -1 -16 -3 -60 -4 -97 -2
-36 -6 -69 -10 -73 -3 -4 -4 12 -1 36 5 38 4 42 -12 36 -14 -6 -16 -4 -9 10
16 36 1 157 -20 150 -6 -2 -13 -12 -15 -22 -2 -10 -8 -24 -15 -31 -6 -8 -17
-21 -25 -29 -7 -9 -16 -14 -19 -11 -3 4 6 19 20 34 31 32 52 98 35 106 -9 3
-9 5 0 5 6 1 15 -4 18 -9 5 -8 11 -7 20 0 11 9 28 9 70 0 72 -15 94 -9 159 43
49 39 96 110 96 146 0 7 5 9 11 6 16 -10 129 113 151 164 26 61 38 76 50 59 6
-9 7 -6 3 8 -3 13 1 26 10 34 9 7 15 29 15 54 0 29 3 37 9 26 6 -8 7 -28 4
-45z m-1343 -20 c-11 -39 -11 -47 2 -58 9 -7 18 -30 21 -51 4 -22 10 -42 14
-45 11 -8 43 -58 43 -67 0 -3 -7 0 -17 7 -15 13 -15 12 -3 -11 12 -24 12 -24
-6 -9 -10 9 -28 22 -39 28 -18 11 -17 12 8 6 35 -7 34 -1 -8 51 -58 70 -63
101 -27 171 22 44 27 33 12 -22z m1793 13 c-9 -24 -27 -54 -39 -69 -13 -14
-24 -29 -24 -35 0 -5 -9 -20 -20 -34 -16 -20 -19 -21 -14 -5 4 11 12 26 17 33
5 7 7 15 4 18 -2 3 -19 -20 -37 -50 -37 -65 -63 -87 -105 -85 -26 2 -27 2 -6
6 32 6 71 32 71 48 0 26 34 77 65 98 18 12 47 43 65 69 18 26 35 48 36 48 2 0
-4 -19 -13 -42z m-278 -148 c-15 -22 -35 -40 -45 -40 -9 0 -20 -3 -23 -6 -4
-4 -33 -17 -64 -30 l-58 -24 31 28 c17 15 36 36 43 47 10 15 11 16 7 2 -5 -16
-3 -16 23 -2 16 8 38 25 48 38 10 13 24 22 31 19 7 -2 12 7 13 25 0 27 1 27
11 6 9 -19 6 -30 -17 -63z m-1445 34 c0 -20 60 -96 102 -130 20 -16 40 -37 44
-48 5 -15 8 -16 15 -5 7 11 9 9 9 -6 0 -12 6 -27 13 -34 10 -11 9 -13 -4 -8
-12 4 -15 -3 -14 -39 2 -50 7 -59 31 -50 11 4 13 10 6 19 -5 6 -13 22 -16 35
-10 32 10 28 26 -5 7 -16 23 -32 35 -38 12 -5 26 -19 32 -31 13 -28 64 -43
127 -37 84 7 92 11 99 42 3 16 13 32 21 35 12 5 12 2 4 -15 -7 -11 -10 -37 -9
-57 1 -20 -4 -57 -10 -81 -13 -44 -11 -77 4 -116 l8 -20 -16 20 -16 20 -2 -20
c-1 -11 -2 -26 -2 -32 1 -7 -4 -13 -9 -13 -6 0 -8 10 -5 22 6 23 -13 98 -25
98 -4 0 -9 -4 -13 -10 -3 -6 -15 -5 -30 2 -19 8 -25 19 -25 42 0 28 -4 32 -29
34 -16 1 -32 -2 -36 -8 -3 -5 -12 -10 -18 -10 -7 0 -1 10 13 21 l25 20 -24 -6
c-15 -5 -21 -3 -17 3 3 5 -5 17 -19 26 -31 21 -35 20 -35 -5 0 -11 -4 -17 -10
-14 -5 3 -10 17 -10 31 0 16 4 23 11 18 7 -4 10 -1 7 7 -3 8 -12 15 -21 17
-12 2 -15 -1 -11 -12 5 -12 0 -16 -17 -15 -22 0 -22 1 -5 8 20 8 20 8 0 14
-10 3 -37 13 -59 22 l-40 16 38 -6 c24 -4 37 -2 37 5 0 6 -4 9 -9 5 -5 -3 -12
-1 -15 4 -4 5 -1 13 5 17 8 5 9 3 4 -6 -5 -9 -4 -11 3 -6 9 5 9 13 1 27 -6 11
-8 27 -5 35 7 18 -104 130 -114 114 -10 -17 -51 57 -58 105 -5 36 -4 39 11 26
10 -7 17 -20 17 -27z m1580 -12 c0 -5 -39 -33 -86 -62 -58 -35 -100 -53 -128
-56 l-41 -4 37 10 c21 5 61 25 90 43 48 31 119 74 126 76 1 1 2 -3 2 -7z m142
-49 c-27 -38 -93 -103 -104 -103 -5 0 3 16 18 35 26 35 28 47 2 22 -23 -23
-85 -67 -93 -67 -4 0 3 10 17 23 14 13 27 28 29 34 4 11 127 83 142 83 5 0 -1
-12 -11 -27z m-1187 -27 c-10 -20 -15 -45 -12 -56 3 -11 1 -18 -4 -14 -5 3 -9
14 -9 24 0 21 31 92 38 86 2 -3 -4 -21 -13 -40z m-58 -53 c-3 -10 -5 -4 -5 12
0 17 2 24 5 18 2 -7 2 -21 0 -30z m-395 -38 c8 -14 2 -12 -21 9 -17 17 -31 34
-31 39 0 14 39 -23 52 -48z m515 33 c-2 -7 0 -22 5 -33 9 -19 8 -19 -6 -2 -8
11 -12 25 -9 33 6 17 16 19 10 2z m907 0 c-3 -5 -10 -5 -16 -2 -7 4 -8 2 -4
-4 4 -6 13 -9 20 -6 8 3 17 1 21 -5 3 -7 -2 -11 -14 -11 -10 0 -28 -3 -38 -6
-15 -5 -15 -4 -3 5 26 18 3 23 -35 7 -56 -24 -57 -17 -1 8 51 23 79 29 70 14z
m-1501 -25 c38 -19 34 -23 -10 -7 -24 8 -63 11 -103 9 l-65 -5 45 14 c49 14
89 11 133 -11z m-528 1 c14 -9 25 -23 25 -31 0 -11 -6 -8 -20 8 -10 13 -19 20
-20 14 0 -5 12 -23 26 -40 14 -16 23 -24 19 -17 -3 6 -2 12 2 12 11 0 93 -60
93 -67 0 -3 -10 2 -22 11 -13 9 -32 21 -43 28 -18 10 -19 10 -6 -5 31 -38 -11
-14 -61 35 -29 28 -46 47 -38 43 13 -8 13 -7 1 8 -12 15 -11 17 3 17 9 0 28
-7 41 -16z m1120 -35 c19 -23 24 -25 40 -13 18 14 18 14 0 14 -15 0 -16 3 -7
12 9 9 17 9 34 1 13 -6 35 -14 51 -17 15 -4 27 -10 27 -15 0 -10 -51 -8 -67 2
-11 7 -23 -1 -23 -14 0 -5 15 -13 33 -18 31 -9 31 -9 5 -10 -15 -1 -30 4 -34
10 -3 6 -17 9 -30 6 -13 -2 -21 0 -18 4 3 5 1 9 -5 9 -5 0 -13 -9 -16 -21 -4
-11 -9 -18 -12 -15 -3 3 -1 19 5 35 7 20 7 33 1 37 -5 3 -8 0 -7 -7 2 -7 -6
-14 -17 -16 -15 -3 -17 -2 -6 5 7 6 10 15 6 21 -4 7 -4 20 0 29 6 14 8 15 13
2 3 -8 15 -27 27 -41z m750 31 c-27 -12 -43 -12 -25 0 8 5 22 9 30 9 10 0 8
-3 -5 -9z m-823 -42 c-9 -9 -12 -7 -12 12 0 19 3 21 12 12 9 -9 9 -15 0 -24z
m1059 12 l-23 -20 28 -1 29 -1 -25 -8 c-123 -39 -168 -49 -140 -29 11 8 6 9
-20 5 l-35 -5 40 14 c22 7 49 14 60 14 11 1 38 12 60 25 49 30 57 31 26 6z
m119 -4 c0 -3 -4 -8 -10 -11 -5 -3 -10 -1 -10 4 0 6 5 11 10 11 6 0 10 -2 10
-4z m-2125 -16 c3 -6 -1 -7 -9 -4 -18 7 -21 14 -7 14 6 0 13 -4 16 -10z m285
-6 c23 -9 39 -18 37 -21 -3 -2 -22 3 -43 11 -22 8 -48 17 -59 19 -18 4 -18 5
2 6 13 0 41 -6 63 -15z m63 9 c-7 -2 -19 -2 -25 0 -7 3 -2 5 12 5 14 0 19 -2
13 -5z m1467 -7 c-25 -7 -58 -19 -75 -26 -26 -11 -27 -14 -10 -18 38 -8 42
-24 5 -17 -54 9 -92 10 -125 2 -28 -7 -29 -6 -11 7 10 9 39 18 65 21 25 4 69
15 96 25 28 10 61 19 75 19 16 0 9 -5 -20 -13z m261 -3 c13 -17 13 -17 -6 -3
-11 8 -22 16 -24 17 -2 2 0 3 6 3 6 0 17 -8 24 -17z m59 -3 c-6 -11 -16 -20
-22 -20 -6 0 -3 9 7 20 10 11 20 20 22 20 2 0 -1 -9 -7 -20z m-1580 -5 c20
-24 4 -29 -19 -6 -14 14 -17 21 -7 21 7 0 19 -7 26 -15z m398 -16 c-19 -13
-28 -11 -28 5 0 9 7 12 21 9 16 -4 17 -8 7 -14z m-748 1 c18 -12 2 -12 -25 0
-13 6 -15 9 -5 9 8 0 22 -4 30 -9z m230 -20 c0 -10 -98 -23 -111 -14 -6 3 -22
3 -37 -1 -25 -7 -25 -8 -7 -15 17 -7 16 -9 -8 -9 -17 -1 -37 -11 -48 -23 l-20
-23 11 23 c15 30 68 62 103 62 16 0 26 3 24 8 -3 4 17 5 44 4 27 -2 49 -7 49
-12z m1150 16 c0 -2 -7 -7 -16 -10 -8 -3 -12 -2 -9 4 6 10 25 14 25 6z m495
-8 c-11 -7 -34 -11 -51 -10 -20 2 -34 -3 -37 -12 -4 -9 -3 -17 1 -19 14 -6
148 2 185 11 30 8 37 7 37 -4 0 -9 -11 -14 -29 -14 -16 0 -44 -12 -65 -29 -20
-16 -49 -32 -64 -35 -48 -11 -167 -24 -174 -19 -5 2 -8 2 -8 -1 0 -3 22 -17
49 -30 84 -40 116 -63 161 -118 25 -29 38 -48 29 -41 -19 16 -93 40 -149 48
-25 4 -56 14 -70 22 -17 9 -18 12 -5 8 44 -14 75 -17 75 -7 0 14 -22 30 -50
34 l-25 5 25 10 24 10 -39 25 c-58 36 -102 50 -175 58 l-65 7 61 1 c34 1 79
-4 101 -12 47 -16 101 -9 117 16 8 14 6 20 -8 31 -21 15 -13 25 25 32 12 2 26
11 33 19 9 13 32 19 96 24 10 1 8 -3 -5 -10z m-2015 -39 c104 3 106 2 107 -21
2 -17 0 -19 -7 -8 -8 13 -12 13 -32 1 -15 -10 -46 -14 -88 -13 -65 2 -65 2
-36 -14 16 -9 53 -18 83 -19 71 -5 81 -15 15 -15 -53 0 -165 32 -192 56 -8 7
-27 16 -43 19 -15 4 -30 12 -34 18 -4 7 14 7 58 2 35 -5 111 -8 169 -6z m1015
-10 c11 -17 -1 -21 -15 -4 -8 9 -8 15 -2 15 6 0 14 -5 17 -11z m663 4 c-10 -2
-26 -2 -35 0 -10 3 -2 5 17 5 19 0 27 -2 18 -5z m-1163 -73 c-10 -4 -22 -15
-26 -26 -7 -18 -8 -18 -8 2 -1 26 17 44 37 36 13 -5 13 -6 -3 -12z m805 -41
c0 -6 -4 -7 -10 -4 -5 3 -10 11 -10 16 0 6 5 7 10 4 6 -3 10 -11 10 -16z
m-1230 -1 c0 -7 -11 -13 -25 -13 -14 0 -25 1 -25 3 0 2 36 19 48 21 1 1 2 -5
2 -11z m510 -19 c0 -5 -9 -9 -19 -9 -11 0 -27 -10 -36 -22 l-16 -23 3 25 c4
36 68 63 68 29z m307 -11 c-3 -7 -5 -2 -5 12 0 14 2 19 5 13 2 -7 2 -19 0 -25z
m807 24 c6 -10 -100 -9 -110 1 -4 4 18 7 49 7 31 0 58 -4 61 -8z m-1190 -10
c-7 -4 -14 -16 -17 -27 -4 -15 -5 -14 -6 8 -1 20 4 27 17 27 11 0 13 -3 6 -8z
m173 -29 c-3 -10 -5 -4 -5 12 0 17 2 24 5 18 2 -7 2 -21 0 -30z m-607 17 c8
-5 3 -10 -18 -15 -33 -7 -117 -63 -109 -72 3 -2 27 5 52 16 26 12 56 21 66 21
10 0 34 9 53 21 20 12 36 19 36 16 0 -11 -57 -41 -90 -48 -49 -11 -201 -67
-219 -82 -12 -9 -13 -9 -7 1 4 7 29 23 55 36 26 14 54 32 62 42 8 9 28 25 44
36 25 15 27 18 10 18 -11 0 -37 -14 -58 -31 -22 -18 -34 -24 -31 -14 16 42
117 78 154 55z m160 -7 c-8 -3 -24 -10 -35 -16 -18 -9 -19 -9 -6 6 7 10 23 17
35 16 14 0 16 -2 6 -6z m1449 -38 c49 -45 80 -62 46 -25 -17 18 -17 20 -2 14
9 -3 17 -2 17 4 0 6 -6 13 -12 15 -7 3 -8 6 -3 6 15 1 75 -56 75 -71 0 -7 -12
0 -26 16 -14 15 -27 26 -29 24 -7 -7 43 -52 60 -54 8 -1 13 2 9 7 -11 19 3 8
37 -27 l34 -36 -32 16 c-37 19 -39 16 -18 -23 8 -16 11 -31 8 -34 -3 -4 8 -21
26 -39 17 -17 31 -38 31 -45 0 -7 -20 9 -45 34 -24 26 -48 44 -52 39 -4 -4 -1
-11 7 -16 8 -6 10 -10 5 -10 -6 0 -15 4 -20 9 -6 5 -21 12 -34 16 -19 6 -23 4
-18 -8 9 -25 -17 -10 -28 16 -6 12 -14 22 -20 22 -5 0 -17 5 -25 10 -12 7 -10
10 10 16 l25 6 -25 11 c-14 6 -20 11 -13 11 24 2 44 -12 58 -39 10 -19 22 -27
39 -27 16 0 23 4 19 11 -17 30 -120 150 -147 171 -17 14 -25 25 -18 25 7 0 35
-20 61 -45z m-1044 -2 c5 -18 3 -22 -9 -17 -9 3 -16 18 -16 32 0 29 14 20 25
-15z m-304 -49 c-17 -19 -31 -30 -31 -24 0 5 9 19 20 30 11 11 20 26 20 33 0
21 15 31 18 13 2 -9 -10 -32 -27 -52z m1203 50 c5 -14 4 -15 -9 -4 -17 14 -19
20 -6 20 5 0 12 -7 15 -16z m-54 -38 c0 -5 10 -21 23 -34 l22 -25 -22 12 c-31
16 -38 14 -22 -6 7 -10 -4 -2 -25 17 -25 22 -37 28 -33 17 4 -11 3 -16 -3 -12
-6 3 -10 17 -10 31 l0 25 27 -21 c30 -24 40 -14 23 22 -11 22 -10 22 4 4 9
-11 16 -24 16 -30z m-1171 30 c-2 -2 -17 -6 -34 -10 -22 -5 -26 -4 -15 4 14 9
59 15 49 6z m772 -27 c-5 -13 -10 -19 -10 -12 -1 15 10 45 15 40 3 -2 0 -15
-5 -28z m53 15 c4 -10 1 -14 -6 -12 -15 5 -23 28 -10 28 5 0 13 -7 16 -16z
m480 7 c4 -5 -3 -7 -14 -4 -23 6 -26 13 -6 13 8 0 17 -4 20 -9z m-1508 -16
c-8 -9 -17 -14 -19 -13 -6 5 -31 -25 -56 -64 -12 -21 -25 -38 -27 -38 -12 0
44 85 69 106 31 26 58 33 33 9z m350 -11 c-30 -21 -42 -17 -15 5 13 11 26 17
29 14 3 -2 -4 -11 -14 -19z m935 -15 c16 -17 29 -39 29 -48 -1 -13 -3 -12 -12
4 -18 33 -50 65 -59 59 -5 -3 -9 0 -9 5 0 20 22 11 51 -20z m-514 -16 c-3 -10
-5 -4 -5 12 0 17 2 24 5 18 2 -7 2 -21 0 -30z m687 -5 c-10 -15 103 -116 160
-145 62 -31 60 -29 51 -43 -5 -8 -12 -5 -22 9 -8 12 -18 21 -24 21 -5 0 -27
12 -49 26 -40 26 -73 25 -37 -1 13 -9 15 -15 7 -20 -7 -4 -10 -16 -7 -26 3
-11 1 -17 -4 -13 -5 3 -9 13 -9 22 0 19 -48 72 -66 72 -7 0 -16 5 -20 11 -4 8
1 9 16 4 19 -6 22 -4 17 10 -4 9 -7 20 -7 25 0 4 -19 26 -42 49 l-43 41 42
-16 c23 -9 40 -21 37 -26z m-1079 -8 c-8 -16 -15 -39 -15 -51 0 -12 -3 -19 -7
-16 -3 4 -15 -5 -25 -20 -10 -16 -18 -23 -18 -16 0 6 5 15 10 18 6 3 10 11 10
17 0 7 -7 5 -17 -4 -34 -28 -48 -30 -17 -1 17 15 43 45 58 66 32 44 42 48 21
7z m-402 -25 c-15 -27 -29 -42 -36 -38 -7 3 -9 3 -5 -2 4 -4 -3 -16 -15 -26
-34 -28 -10 -22 45 11 26 17 52 30 56 30 4 0 25 14 46 30 43 32 68 30 39 -3
-10 -12 -20 -24 -22 -27 -2 -3 -1 3 2 13 8 22 9 23 -73 -28 -36 -22 -82 -57
-102 -77 -40 -40 -73 -54 -38 -16 11 12 20 24 21 27 6 48 35 95 51 85 6 -4 8
-3 5 3 -5 8 37 63 49 63 1 0 -9 -20 -23 -45z m147 -15 c-6 -11 -13 -20 -16
-20 -2 0 0 9 6 20 6 11 13 20 16 20 2 0 0 -9 -6 -20z m722 -46 c-6 -21 -8 -44
-3 -52 5 -9 6 -34 3 -56 -5 -38 -4 -40 12 -27 10 9 14 21 10 33 -4 15 -2 19
11 16 36 -7 42 -35 17 -78 -18 -31 -20 -44 -12 -58 9 -14 10 -13 5 8 -5 22 -4
23 5 7 9 -14 8 -27 -5 -55 -16 -37 -16 -37 -11 -6 4 23 0 37 -14 49 -18 16
-20 16 -26 1 -5 -14 -9 -13 -29 8 l-23 24 -11 -25 c-7 -14 -14 -23 -18 -20 -3
4 0 13 7 22 8 9 10 27 6 50 -6 28 -4 35 9 35 9 0 15 9 15 21 0 18 -5 21 -31
17 -22 -4 -33 0 -40 15 -6 10 -8 21 -5 24 3 3 8 -2 12 -11 4 -10 17 -16 35
-16 30 0 36 -7 42 -48 2 -12 9 -28 16 -35 10 -10 12 -8 9 8 -1 11 -6 22 -9 25
-3 3 -1 45 4 93 7 62 13 85 20 78 7 -7 7 -22 -1 -47z m578 12 c0 -6 -5 -18
-10 -26 -8 -13 -10 -12 -10 3 0 9 -6 17 -12 17 -10 0 -10 2 0 8 7 5 10 17 7
28 -6 19 -6 19 9 0 9 -11 16 -25 16 -30z m-320 15 c5 -11 9 -30 9 -43 -2 -22
-2 -22 -6 2 -3 14 -12 33 -20 43 -10 10 -11 17 -5 17 6 0 16 -9 22 -19z m-668
-31 c-12 -16 -22 -34 -22 -40 0 -6 -5 -8 -11 -4 -8 5 -10 -4 -7 -29 2 -20 0
-33 -4 -31 -4 3 -8 33 -8 67 0 42 3 57 9 47 6 -8 7 -18 5 -22 -3 -4 -2 -8 3
-8 4 0 17 13 28 29 11 17 21 28 24 25 3 -2 -5 -18 -17 -34z m-292 -27 c-12
-21 -18 -29 -14 -18 3 11 7 27 8 35 3 23 19 46 23 33 3 -7 -5 -29 -17 -50z
m-95 31 c-9 -9 -19 -29 -22 -45 -3 -16 -9 -32 -14 -34 -9 -6 4 43 20 74 7 11
16 21 22 21 6 0 3 -7 -6 -16z m191 -22 c-7 -15 -15 -34 -18 -42 -3 -8 -7 -1
-10 17 -2 18 -1 30 3 28 4 -3 9 5 12 16 3 12 10 18 16 14 8 -4 7 -15 -3 -33z
m-106 9 c0 -8 -84 -61 -96 -61 -12 0 -1 22 14 27 9 4 28 15 41 25 26 20 41 23
41 9z m805 -58 c-9 -37 -18 -20 -9 19 4 18 9 27 11 20 3 -7 2 -24 -2 -39z
m516 0 l24 -26 -27 19 c-15 10 -28 22 -28 27 0 12 5 8 31 -20z m-464 -82 c-6
-2 -13 1 -15 8 -2 6 -8 11 -13 11 -6 0 -7 -6 -3 -12 5 -9 2 -9 -9 1 -19 15
-23 36 -5 25 8 -5 9 -1 4 12 -5 13 2 10 22 -11 16 -16 24 -32 19 -34z m-268 7
c1 -5 -4 -8 -10 -8 -5 0 -7 6 -3 13 4 7 3 9 -2 4 -5 -5 -9 -12 -9 -17 0 -10
-97 -99 -108 -100 -5 0 -5 -4 -2 -10 3 -5 -1 -10 -10 -10 -9 0 -14 -4 -11 -8
2 -4 -15 -12 -40 -18 -24 -6 -44 -9 -44 -8 0 5 91 64 99 64 5 0 31 20 57 45
27 25 40 43 29 39 -16 -6 -14 -1 10 25 26 28 30 30 37 14 3 -10 7 -21 7 -25z
m248 -33 c0 -8 -4 -12 -9 -9 -5 3 -6 10 -3 15 9 13 12 11 12 -6z m108 -69 c11
-10 14 -16 8 -12 -7 4 -13 3 -13 -2 0 -6 19 -19 43 -31 34 -17 38 -21 17 -20
-14 0 -43 7 -65 15 -24 8 -29 12 -12 8 l28 -5 -28 36 c-15 20 -38 42 -50 51
-13 8 -23 19 -23 25 0 11 56 -27 95 -65z m-124 21 c-8 -8 -14 -7 -23 2 -11 10
-9 11 6 5 15 -6 17 -4 11 6 -6 9 -4 11 4 5 9 -5 10 -10 2 -18z m49 -32 c13
-14 19 -25 14 -25 -6 0 -20 11 -32 25 -12 14 -18 25 -14 25 5 0 19 -11 32 -25z
m-300 -10 c-7 -9 -10 -28 -7 -48 3 -17 3 -26 0 -19 -3 9 -14 1 -30 -22 -13
-20 -22 -40 -19 -44 3 -5 -13 -28 -35 -53 l-40 -44 23 40 c13 22 29 49 36 60
28 47 52 95 47 95 -3 0 2 14 10 31 9 17 19 28 22 25 3 -3 0 -12 -7 -21z m290
-36 c0 -4 -5 -11 -12 -15 -7 -4 -8 -3 -4 4 4 7 -7 20 -28 33 -49 29 -46 36 4
8 22 -13 40 -26 40 -30z m-210 3 c0 -15 -2 -15 -10 -2 -13 20 -13 33 0 25 6
-3 10 -14 10 -23z m-133 0 c-19 -20 -23 -37 -7 -27 6 3 10 2 10 -3 0 -5 -9
-12 -20 -15 -11 -3 -25 -18 -32 -34 -12 -29 -48 -80 -48 -70 0 23 72 144 94
159 19 13 20 9 3 -10z m120 -42 c-1 -11 -6 -21 -12 -24 -7 -2 -10 7 -7 25 5
31 22 31 19 -1z m-40 -17 c-3 -10 -5 -4 -5 12 0 17 2 24 5 18 2 -7 2 -21 0
-30z m194 1 c13 -14 17 -23 9 -19 -13 5 -46 45 -37 45 2 0 14 -11 28 -26z
m-117 -24 c4 -25 3 -31 -4 -20 -5 8 -10 26 -10 39 0 32 6 24 14 -19z m84 0
c-2 -7 -10 1 -17 16 -12 27 -11 28 4 12 10 -9 16 -21 13 -28z m184 -10 c23
-40 16 -38 -16 5 -15 19 -21 32 -14 30 7 -3 21 -19 30 -35z m-295 -2 c-3 -8
-6 -5 -6 6 -1 11 2 17 5 13 3 -3 4 -12 1 -19z m-42 -9 c-4 -5 -18 -14 -31 -19
-19 -8 -24 -17 -24 -46 0 -27 -7 -43 -31 -65 -33 -31 -49 -36 -49 -17 0 6 3 8
7 5 9 -10 44 24 37 35 -3 5 -12 1 -20 -9 -8 -10 -5 2 6 25 12 24 24 42 27 39
2 -3 0 -14 -6 -26 -7 -12 -7 -22 -2 -26 15 -8 23 12 19 48 -3 28 1 34 32 49
42 21 43 21 35 7z m324 -36 c18 -27 23 -37 11 -23 -11 14 -32 35 -46 48 -15
13 -20 22 -11 22 7 0 28 -21 46 -47z m-287 -15 c-8 -8 -9 -4 -5 13 4 13 8 18
11 10 2 -7 -1 -18 -6 -23z m242 24 c3 -5 -1 -9 -9 -9 -8 0 -12 4 -9 9 3 4 7 8
9 8 2 0 6 -4 9 -8z m-95 -67 c0 -5 -6 1 -14 15 -8 14 -14 30 -14 35 0 6 6 -1
14 -15 8 -14 14 -29 14 -35z m124 -55 c-2 -2 -25 18 -51 45 l-47 49 51 -44
c27 -25 49 -47 47 -50z m-244 77 c-2 -1 -12 -9 -21 -16 -15 -12 -18 -11 -18 3
0 10 8 16 22 16 12 0 19 -1 17 -3z m95 -28 c-2 -4 1 -9 7 -11 7 -2 10 -9 8
-16 -2 -6 -13 -1 -25 13 -19 21 -19 23 -3 22 10 -1 16 -4 13 -8z m-133 -86
c-11 -41 -21 -14 -14 37 6 42 7 43 14 18 4 -16 4 -40 0 -55z m33 53 c-3 -9
-10 -16 -15 -16 -5 0 -4 9 3 20 14 22 21 20 12 -4z"/>
<path d="M276 1442 c-7 -12 41 -69 50 -59 8 8 -16 58 -25 53 -5 -4 -11 -1 -13
6 -3 9 -6 9 -12 0z"/>
<path d="M373 1403 c14 -14 19 -15 29 -4 10 11 10 12 1 7 -7 -4 -13 -2 -13 3
0 6 -8 11 -17 11 -16 0 -16 -1 0 -17z"/>
<path d="M2125 1599 c-4 -6 -5 -12 -2 -15 2 -3 7 2 10 11 7 17 1 20 -8 4z"/>
<path d="M1954 1365 c-19 -14 -19 -14 2 -15 12 0 27 7 34 15 17 20 -9 21 -36
0z"/>
<path d="M1760 1309 c0 -5 5 -7 10 -4 6 3 10 8 10 11 0 2 -4 4 -10 4 -5 0 -10
-5 -10 -11z"/>
<path d="M1750 1260 c-9 -16 -8 -20 5 -20 8 0 15 9 15 20 0 11 -2 20 -5 20 -2
0 -9 -9 -15 -20z"/>
<path d="M1473 1153 c9 -2 23 -2 30 0 6 3 -1 5 -18 5 -16 0 -22 -2 -12 -5z"/>
<path d="M1750 911 c0 -6 4 -13 10 -16 6 -3 7 1 4 9 -7 18 -14 21 -14 7z"/>
<path d="M1242 1149 c-1 -13 -3 -37 -5 -54 -2 -16 -2 -20 0 -7 2 12 9 22 14
22 11 0 12 31 0 49 -7 11 -9 8 -9 -10z"/>
<path d="M1151 1106 c-15 -18 2 -56 24 -56 16 0 18 12 9 48 -7 26 -17 28 -33
8z"/>
<path d="M1221 1034 c0 -11 3 -14 6 -6 3 7 2 16 -1 19 -3 4 -6 -2 -5 -13z"/>
<path d="M2297 1213 c-4 -3 -7 -11 -7 -17 0 -6 5 -5 12 2 6 6 9 14 7 17 -3 3
-9 2 -12 -2z"/>
<path d="M2320 1200 c0 -5 9 -10 21 -10 11 0 17 5 14 10 -3 6 -13 10 -21 10
-8 0 -14 -4 -14 -10z"/>
<path d="M2276 1075 c4 -8 10 -15 15 -15 5 0 9 -9 9 -20 0 -16 7 -20 30 -20
40 0 38 14 -7 45 -43 29 -55 31 -47 10z"/>
<path d="M2365 1010 c-3 -5 1 -10 10 -10 9 0 13 5 10 10 -3 6 -8 10 -10 10 -2
0 -7 -4 -10 -10z"/>
<path d="M268 1213 c6 -2 18 -2 25 0 6 3 1 5 -13 5 -14 0 -19 -2 -12 -5z"/>
<path d="M418 1213 c7 -3 16 -2 19 1 4 3 -2 6 -13 5 -11 0 -14 -3 -6 -6z"/>
<path d="M2169 943 c43 -58 51 -66 57 -60 8 7 -54 87 -68 87 -5 0 0 -12 11
-27z"/>
<path d="M1397 755 c-4 -11 -10 -27 -13 -35 -5 -12 -3 -12 11 1 9 9 15 25 13
35 -4 18 -4 18 -11 -1z"/>
<path d="M1515 80 c-8 -13 3 -30 18 -30 7 0 6 4 -3 10 -13 9 -13 11 0 20 9 6
10 10 3 10 -6 0 -15 -4 -18 -10z"/>
<path d="M1648 83 c7 -3 16 -2 19 1 4 3 -2 6 -13 5 -11 0 -14 -3 -6 -6z"/>
<path d="M1767 83 c-2 -5 -1 -19 4 -33 7 -23 7 -23 8 8 1 31 -3 40 -12 25z"/>
<path d="M962 60 c0 -14 2 -19 5 -12 2 6 2 18 0 25 -3 6 -5 1 -5 -13z"/>
<path d="M1610 70 c-9 -6 -10 -10 -3 -10 6 0 15 5 18 10 8 12 4 12 -15 0z"/>
<path d="M941 54 c0 -11 3 -14 6 -6 3 7 2 16 -1 19 -3 4 -6 -2 -5 -13z"/>
<path d="M1051 54 c0 -11 3 -14 6 -6 3 7 2 16 -1 19 -3 4 -6 -2 -5 -13z"/>
<path d="M1175 50 c21 -24 26 -25 19 -6 -3 8 -13 17 -22 21 -13 5 -13 2 3 -15z"/>
<path d="M1351 54 c0 -11 3 -14 6 -6 3 7 2 16 -1 19 -3 4 -6 -2 -5 -13z"/>
<path d="M1371 54 c0 -11 3 -14 6 -6 3 7 2 16 -1 19 -3 4 -6 -2 -5 -13z"/>
<path d="M1725 51 c-3 -5 -2 -12 3 -15 5 -3 9 1 9 9 0 17 -3 19 -12 6z"/>
</g>
</svg>
